<svg xmlns="http://www.w3.org/2000/svg" width="48" height="48" viewBox="0 0 48 48">
    <path d="M24,24m-24,0a24,24 0,1 1,48 0a24,24 0,1 1,-48 0" fill="#e5e7eb" />

    <path
        d="M33.648,31.875C32.221,29.407 30.02,27.637 27.452,26.798C28.723,26.042 29.709,24.889 30.261,23.518C30.813,22.147 30.9,20.632 30.508,19.207C30.116,17.782 29.267,16.525 28.091,15.629C26.915,14.733 25.478,14.248 24,14.248C22.521,14.248 21.084,14.733 19.908,15.629C18.733,16.525 17.884,17.782 17.492,19.207C17.099,20.632 17.186,22.147 17.738,23.518C18.29,24.889 19.277,26.042 20.547,26.798C17.979,27.636 15.779,29.406 14.351,31.875C14.299,31.961 14.264,32.056 14.249,32.154C14.234,32.254 14.239,32.354 14.263,32.452C14.288,32.549 14.332,32.64 14.392,32.72C14.453,32.8 14.528,32.867 14.615,32.917C14.702,32.967 14.798,32.999 14.897,33.011C14.997,33.024 15.097,33.016 15.194,32.989C15.29,32.962 15.38,32.916 15.458,32.853C15.537,32.791 15.601,32.713 15.649,32.625C17.416,29.573 20.538,27.75 24,27.75C27.462,27.75 30.584,29.573 32.35,32.625C32.398,32.713 32.463,32.791 32.541,32.853C32.619,32.916 32.709,32.962 32.806,32.989C32.902,33.016 33.003,33.024 33.102,33.011C33.202,32.999 33.298,32.967 33.384,32.917C33.471,32.867 33.547,32.8 33.607,32.72C33.668,32.64 33.711,32.549 33.736,32.452C33.761,32.354 33.766,32.254 33.75,32.154C33.736,32.056 33.701,31.961 33.648,31.875ZM18.75,21C18.75,19.962 19.058,18.947 19.634,18.083C20.211,17.22 21.031,16.547 21.991,16.15C22.95,15.752 24.006,15.648 25.024,15.851C26.042,16.054 26.978,16.554 27.712,17.288C28.446,18.022 28.946,18.958 29.149,19.976C29.351,20.994 29.247,22.05 28.85,23.009C28.453,23.969 27.78,24.788 26.916,25.365C26.053,25.942 25.038,26.25 24,26.25C22.608,26.249 21.273,25.695 20.289,24.711C19.305,23.726 18.751,22.392 18.75,21Z"
        fill="#9ca3af" />
</svg>