<svg xmlns="http://www.w3.org/2000/svg" width="20" height="20" viewBox="0 0 20 20">
    <path
        d="M9.111,2.037A0.37,0.37 0,0 0,8.741 1.667L2.037,1.667A0.37,0.37 0,0 0,1.667 2.037v6.7a0.37,0.37 0,0 0,0.37 0.37h6.7a0.37,0.37 0,0 0,0.37 -0.37ZM8.367,8.367L2.408,8.367L2.408,2.408L8.367,2.408ZM8.367,8.367"
        fill="#666666" stroke="#666666" stroke-width="0.6" />
    <path
        d="M18.333,2.037a0.37,0.37 0,0 0,-0.37 -0.37h-6.7a0.37,0.37 0,0 0,-0.37 0.37v6.7a0.37,0.37 0,0 0,0.37 0.37h6.7a0.37,0.37 0,0 0,0.37 -0.37ZM17.593,8.367h-5.963L11.63,2.408h5.963ZM17.593,8.367"
        fill="#666666" stroke="#666666" stroke-width="0.6" />
    <path
        d="M9.111,11.259a0.37,0.37 0,0 0,-0.37 -0.37L2.037,10.889a0.37,0.37 0,0 0,-0.37 0.37v6.7a0.37,0.37 0,0 0,0.37 0.37h6.7a0.37,0.37 0,0 0,0.37 -0.37ZM8.37,17.559L2.408,17.559v-5.926L8.367,11.633ZM8.37,17.559"
        fill="#666666" stroke="#666666" stroke-width="0.6" />
    <path
        d="M18.333,11.259a0.37,0.37 0,0 0,-0.37 -0.37h-6.7a0.37,0.37 0,0 0,-0.37 0.37v6.7a0.37,0.37 0,0 0,0.37 0.37h6.7a0.37,0.37 0,0 0,0.37 -0.37ZM17.592,17.559h-5.963v-5.926h5.963ZM17.592,17.559"
        fill="#666666" stroke="#666666" stroke-width="0.6" />
</svg>