<svg xmlns="http://www.w3.org/2000/svg" width="20" height="20" viewBox="0 0 20 20">
    <defs>
        <linearGradient id="logoutGrad" x1="0%" y1="0%" x2="0%" y2="100%">
            <stop offset="0%" stop-color="#5295fb" />
            <stop offset="100%" stop-color="#0348b5" />
        </linearGradient>
    </defs>

    <path
        d="M15.02,11.808a0.482,0.482 0,0 1,0 -0.689l1.6,-1.6L11.634,9.519a0.487,0.487 0,0 1,0 -0.973L16.62,8.546L15.02,6.938A0.486,0.486 0,0 1,15.708 6.251L18.14,8.683a0.488,0.488 0,0 1,0 0.687L15.708,11.801a0.484,0.484 0,0 1,-0.344 0.145A0.491,0.491 0,0 1,15.02 11.808Z"
        fill="url(#logoutGrad)" fill-opacity="0.8" />
    <path
        d="M7.906,17.78a1.336,1.336 0,0 1,-0.4 -0.06l-3.9,-1.3A1.309,1.309 0,0 1,2.719 15.187L2.719,3.511A1.3,1.3 0,0 1,4.019 2.219a1.337,1.337 0,0 1,0.4 0.06l3.9,1.3A1.309,1.309 0,0 1,9.203 4.811L9.203,16.484A1.3,1.3 0,0 1,7.906 17.78Z"
        fill="url(#logoutGrad)" fill-opacity="0.8" />
    <path
        d="M12.607,6.542a0.486,0.486 0,0 1,-0.486 -0.486L12.121,4.002a0.812,0.812 0,0 0,-0.81 -0.811L4.016,3.191a0.486,0.486 0,1 1,0 -0.973h7.294a1.785,1.785 0,0 1,1.783 1.783L13.093,6.055A0.486,0.486 0,0 1,12.607 6.542ZM12.607,6.542"
        fill="url(#logoutGrad)" fill-opacity="0.8" />
    <path
        d="M11.31,15.836h-2.594a0.486,0.486 0,1 1,0 -0.973h2.594a0.812,0.812 0,0 0,0.81 -0.811v-2.053a0.486,0.486 0,1 1,0.973 0v2.053A1.784,1.784 0,0 1,11.31 15.836ZM11.31,15.836"
        fill="url(#logoutGrad)" fill-opacity="0.8" />
</svg>