<svg xmlns="http://www.w3.org/2000/svg" width="20" height="20" viewBox="0 0 20 20">
    <defs>
        <linearGradient id="blueGradient" x1="0%" y1="0%" x2="100%" y2="100%">
            <stop offset="0%" stop-color="#5597ff" />
            <stop offset="100%" stop-color="#185ece" />
        </linearGradient>
    </defs>

    <path d="M12.401,13.147a3.958,3.958 0,0 1,-4.8 0L4.018,16.726a9,9 0,0 0,11.96 0Z" fill="url(#blueGradient)" />
    <path d="M16.726,4.019l-3.579,3.579a3.958,3.958 0,0 1,0 4.8l3.579,3.579a9,9 0,0 0,0 -11.96Z"
        fill="url(#blueGradient)" />
    <path
        d="M10,1A8.934,8.934 0,0 0,4.016 3.274l3.579,3.579a3.958,3.958 0,0 1,4.8 0l3.579,-3.579A8.934,8.934 0,0 0,10 1Z"
        fill="url(#blueGradient)" />
    <path d="M6.853,7.599 L3.274,4.018a9,9 0,0 0,0 11.96l3.579,-3.579a3.958,3.958 0,0 1,0 -4.8Z"
        fill="url(#blueGradient)" />
</svg>