<svg xmlns="http://www.w3.org/2000/svg" width="28" height="28" viewBox="0 0 28 28">
    <path d="M14,14m-14,0a14,14 0,1 1,28 0a14,14 0,1 1,-28 0" fill="#185ece" />
    <path d="M14,14m-13.5,0a13.5,13.5 0,1 1,27 0a13.5,13.5 0,1 1,-27 0" fill="none" stroke="#fafafa" stroke-width="1" />
    <path d="M14,14m-8,0a8,8 0,1 1,16 0a8,8 0,1 1,-16 0" fill="#ffffff" />
    <path d="M14,14m-5.9,0a5.9,5.9 0,1 1,11.8 0a5.9,5.9 0,1 1,-11.8 0" fill="none" stroke="#185ece" stroke-width="1" />
    <path
        d="M14,11.333L14,11.333A0.8,0.8 0,0 1,14.8 12.133L14.8,15.866A0.8,0.8 0,0 1,14 16.666L14,16.666A0.8,0.8 0,0 1,13.2 15.866L13.2,12.133A0.8,0.8 0,0 1,14 11.333z"
        fill="#185ece" />
</svg>